<svg xmlns="http://www.w3.org/2000/svg" viewBox="0 0 279.913 69.894" height="264.179" width="1057.928"><g fill="#2f7a45"><path d="M145.858 20.382L131.194 42.47h-.948l14.48-25.616 10.952 6.711 5.307 5.66-.918 7.563 6.88 5.682h-16.649l-1.617-5.468 3.675-7.005z"/><path d="M153.23 21.985l-.984-.493L160.655 0l17.464 21.066 5.44-3.11 10.437 24.58h-2.587l-9.901-11.995 1.418-10.107-12.091 8.548.213-6.431L161.5 5.299z"/><path d="M166.947 42.47l.69-1.962 7.211-1.985 1.625-5.086 4.63 9.033z"/></g><text y="69.556" x="124.844" style="line-height:1.25;-inkscape-font-specification:Keraleeyam" font-weight="400" font-size="29.71" letter-spacing="0" word-spacing="0" font-family="Keraleeyam" fill="#2f7a45" stroke-width=".662"><tspan style="-inkscape-font-specification:Keraleeyam" y="69.556" x="124.844">MONTE</tspan></text><text y="69.578" x="-1.451" style="line-height:1.25;-inkscape-font-specification:Keraleeyam" font-weight="400" font-size="29.71" letter-spacing="0" word-spacing="0" font-family="Keraleeyam" fill="#fff" stroke-width=".375"><tspan style="-inkscape-font-specification:Keraleeyam" y="69.578" x="-1.451">ASOCIACION</tspan></text><text y="69.549" x="199.979" style="line-height:1.25;-inkscape-font-specification:Keraleeyam" font-weight="400" font-size="29.71" letter-spacing="0" word-spacing="0" font-family="Keraleeyam" fill="#fff" stroke-width=".595"><tspan style="-inkscape-font-specification:Keraleeyam" y="69.549" x="199.979">GALEGO</tspan></text></svg>