<svg xmlns="http://www.w3.org/2000/svg" viewBox="0 0 82.873 109.518" height="413.925" width="313.22"><g fill="#2f7a45"><path d="M26.456 18.777L12.948 39.115h-.87l13.336-23.594 10.093 6.186 4.883 5.21-.846 6.966 6.337 5.232H30.543L29.06 34.08l3.386-6.447z"/><path d="M33.248 20.25l-.911-.455L40.085 0 56.17 19.404l5.013-2.865 9.612 22.643H68.41L59.294 28.13l1.302-9.312-11.134 7.88.195-5.926-8.79-15.888z"/><path d="M45.881 39.115l.636-1.806 6.642-1.823 1.498-4.688 4.257 8.317z"/></g><text y="130.629" x="51.802" style="line-height:1.25;-inkscape-font-specification:Keraleeyam" font-weight="400" font-size="34.837" font-family="Keraleeyam" letter-spacing="0" word-spacing="0" fill="#2f7a45" stroke-width=".871" transform="translate(-52.644 -46.536)"><tspan style="-inkscape-font-specification:Keraleeyam" y="130.629" x="51.802">MONTE</tspan></text><text y="103.354" x="52.717" style="line-height:1.25;-inkscape-font-specification:Keraleeyam" font-weight="400" font-size="19.862" font-family="Keraleeyam" letter-spacing="0" word-spacing="0" fill="#fff" stroke-width=".497" transform="translate(-52.644 -46.536)"><tspan style="-inkscape-font-specification:Keraleeyam" y="103.354" x="52.717">ASOCIACION</tspan></text><text y="155.763" x="51.237" style="line-height:1.25;-inkscape-font-specification:Keraleeyam" font-weight="400" font-size="31.326" font-family="Keraleeyam" letter-spacing="0" word-spacing="0" fill="#fff" stroke-width=".783" transform="translate(-52.644 -46.536)"><tspan style="-inkscape-font-specification:Keraleeyam" y="155.763" x="51.237">GALEGO</tspan></text></svg>